HIERARCHY
ROOT RootJoint
{
    OFFSET   0.000000   0.000000   0.000000
    CHANNELS 6 Xposition Yposition Zposition Xrotation Yrotation Zrotation
    JOINT pelvis_lowerback
    {
        OFFSET   0.000000   0.093605   0.000000
        CHANNELS 3 Xrotation Yrotation Zrotation
        JOINT lowerback_torso
        {
            OFFSET   0.000000   0.100000   0.000000
            CHANNELS 3 Xrotation Yrotation Zrotation
            JOINT torso_head
            {
                OFFSET   0.000000   0.282350   0.000000
                CHANNELS 3 Xrotation Yrotation Zrotation
                End Site
                {
                    OFFSET   0.000000   0.192650   0.000000
                }
            }
            JOINT rTorso_Clavicle
            {
                OFFSET  -0.001000   0.157500   0.000000
                CHANNELS 3 Xrotation Yrotation Zrotation
                JOINT rShoulder
                {
                    OFFSET  -0.117647   0.000000   0.000000
                    CHANNELS 3 Xrotation Yrotation Zrotation
                    JOINT rElbow
                    {
                        OFFSET  -0.245000   0.000000   0.000000
                        CHANNELS 3 Xrotation Yrotation Zrotation
                        JOINT rWrist
                        {
                            OFFSET  -0.240000   0.000000   0.000000
                            CHANNELS 3 Xrotation Yrotation Zrotation
                            End Site
                            {
                                OFFSET  -0.116353  -0.002500   0.000000
                            }
                        }
                    }
                }
            }
            JOINT lTorso_Clavicle
            {
                OFFSET   0.001000   0.157500   0.000000
                CHANNELS 3 Xrotation Yrotation Zrotation
                JOINT lShoulder
                {
                    OFFSET   0.117647   0.000000   0.000000
                    CHANNELS 3 Xrotation Yrotation Zrotation
                    JOINT lElbow
                    {
                        OFFSET   0.245000   0.000000   0.000000
                        CHANNELS 3 Xrotation Yrotation Zrotation
                        JOINT lWrist
                        {
                            OFFSET   0.240000   0.000000   0.000000
                            CHANNELS 3 Xrotation Yrotation Zrotation
                            End Site
                            {
                                OFFSET   0.116353  -0.002500   0.000000
                            }
                        }
                    }
                }
            }
        }
    }
    JOINT rHip
    {
        OFFSET  -0.100000  -0.051395   0.000000
        CHANNELS 3 Xrotation Yrotation Zrotation
        JOINT rKnee
        {
            OFFSET   0.000000  -0.410000   0.000000
            CHANNELS 3 Xrotation Yrotation Zrotation
            JOINT rAnkle
            {
                OFFSET   0.000000  -0.390000   0.000000
                CHANNELS 3 Xrotation Yrotation Zrotation
                JOINT rToeJoint
                {
                    OFFSET   0.000000  -0.050000   0.130000
                    CHANNELS 3 Xrotation Yrotation Zrotation
                    End Site
                    {
                        OFFSET  -0.010000   0.002000   0.060000
                    }
                }
            }
        }
    }
    JOINT lHip
    {
        OFFSET   0.100000  -0.051395   0.000000
        CHANNELS 3 Xrotation Yrotation Zrotation
        JOINT lKnee
        {
            OFFSET   0.000000  -0.410000   0.000000
            CHANNELS 3 Xrotation Yrotation Zrotation
            JOINT lAnkle
            {
                OFFSET   0.000000  -0.390000   0.000000
                CHANNELS 3 Xrotation Yrotation Zrotation
                JOINT lToeJoint
                {
                    OFFSET   0.000000  -0.050000   0.130000
                    CHANNELS 3 Xrotation Yrotation Zrotation
                    End Site
                    {
                        OFFSET   0.010000   0.002000   0.060000
                    }
                }
            }
        }
    }
}
MOTION
Frames: 8
Frame Time:   0.008333
 -2.381515   0.904997   3.835042  23.654482  -5.780762   3.223999  34.733215  -0.745301   1.455705   1.306088  -0.260092  -0.288628   2.246317   0.218810  -3.145293  -4.777585  20.211648  -6.509258 -11.030357  22.841395  33.150038  -0.000076  38.914389  -0.000002   1.618238   4.751526  -4.081506  -7.218117 -23.038430   5.657627  -2.666351 -26.766497 -23.691623   0.000057 -36.443673  -0.000121   7.246634  -7.996722   3.739361 -36.947251  -3.252244  -6.106646   9.697408   0.000028  -0.000037   4.136314  -1.536350   3.256903  -0.550569   0.000000  -0.000000 -33.514711   4.193662   7.168973  12.245238   0.000031  -0.000018  -1.818960   5.603719  -2.248966   0.249914   0.000006   0.000001
 -2.381638   0.905023   3.835028  23.689762  -5.777588   3.224788  34.689994  -0.748499   1.440101   1.296934  -0.266194  -0.318328   2.261857   0.199383  -3.159403  -4.779358  20.202278  -6.524277 -11.029222  22.823522  33.093560  -0.000059  38.912893  -0.000002   1.611526   4.744772  -4.036433  -7.225127 -22.993911   5.645087  -2.656163 -26.778681 -23.690561   0.000036 -36.526694  -0.000147   7.239706  -7.994939   3.649654 -36.953463  -3.248858  -6.093569   9.638338   0.000027  -0.000035   4.167687  -1.547436   3.252437  -0.551303   0.000000  -0.000000 -33.519089   4.200804   7.177691  12.174126   0.000029  -0.000019  -1.779748   5.596513  -2.259311   0.253147   0.000005   0.000001
 -2.381749   0.905050   3.835020  23.724109  -5.775726   3.226392  34.646283  -0.751135   1.424655   1.285362  -0.271564  -0.348374   2.277484   0.180770  -3.173350  -4.781871  20.194027  -6.540356 -11.028285  22.806638  33.038861  -0.000045  38.910700  -0.000001   1.605201   4.732727  -3.992704  -7.234275 -22.951967   5.635157  -2.648058 -26.790976 -23.687551   0.000011 -36.606030  -0.000167   7.233815  -8.004122   3.569688 -36.958628  -3.245020  -6.081483   9.579065   0.000025  -0.000033   4.198922  -1.557232   3.247676  -0.551789   0.000000  -0.000000 -33.522687   4.208509   7.185325  12.104898   0.000028  -0.000019  -1.741850   5.590403  -2.269119   0.255561   0.000004   0.000001
 -2.381848   0.905075   3.835018  23.756387  -5.774097   3.227926  34.602880  -0.753821   1.409632   1.271732  -0.276603  -0.377091   2.292175   0.163389  -3.186601  -4.785054  20.186527  -6.556545 -11.027835  22.790979  32.986770  -0.000034  38.908671  -0.000001   1.599155   4.720144  -3.952490  -7.244251 -22.913121   5.627300  -2.641151 -26.802680 -23.683259  -0.000014 -36.680393  -0.000181   7.228368  -8.015872   3.497717 -36.962637  -3.241328  -6.070384   9.522410   0.000023  -0.000031   4.228299  -1.566415   3.243026  -0.552119   0.000000  -0.000000 -33.525539   4.215771   7.192165  12.039693   0.000026  -0.000018  -1.706428   5.584865  -2.278361   0.257338   0.000003   0.000001
 -2.381937   0.905100   3.835023  23.786282  -5.772491   3.229220  34.559889  -0.756632   1.395153   1.256518  -0.281392  -0.404182   2.305814   0.147169  -3.199065  -4.788629  20.179705  -6.572359 -11.027782  22.776520  32.937545  -0.000026  38.906897  -0.000000   1.593413   4.708374  -3.915639  -7.254541 -22.877123   5.620969  -2.635133 -26.813720 -23.678193  -0.000037 -36.749909  -0.000189   7.223213  -8.027808   3.431891 -36.965333  -3.237899  -6.060269   9.468932   0.000022  -0.000028   4.255444  -1.575119   3.238609  -0.552322   0.000000   0.000000 -33.527446   4.222499   7.198285  11.978764   0.000024  -0.000018  -1.673686   5.579704  -2.287114   0.258588   0.000003   0.000000
 -2.382016   0.905124   3.835036  23.813776  -5.770872   3.230264  34.517333  -0.759530   1.381276   1.240074  -0.285922  -0.429631   2.318413   0.132031  -3.210753  -4.792379  20.173484  -6.587560 -11.028015  22.763182  32.891247  -0.000019  38.905371  -0.000000   1.587968   4.697677  -3.881591  -7.264857 -22.843702   5.615808  -2.629819 -26.824102 -23.672683  -0.000057 -36.814853  -0.000193   7.218302  -8.039411   3.371062 -36.966687  -3.234742  -6.051123   9.418644   0.000019  -0.000026   4.280335  -1.583382   3.234437  -0.552405   0.000000   0.000000 -33.528326   4.228727   7.203707  11.921980   0.000022  -0.000017  -1.643588   5.574854  -2.295423   0.259403   0.000002   0.000000
 -2.382085   0.905147   3.835057  23.838959  -5.769226   3.231084  34.475256  -0.762459   1.368022   1.222674  -0.290168  -0.453481   2.330013   0.117902  -3.221699  -4.796161  20.167799  -6.602036 -11.028446  22.750880  32.847835  -0.000014  38.904069  -0.000000   1.582800   4.688043  -3.849859  -7.275034 -22.812614   5.611591  -2.625084 -26.833838 -23.666929  -0.000074 -36.875511  -0.000193   7.213615  -8.050580   3.314487 -36.966752  -3.231848  -6.042936   9.371420   0.000017  -0.000024   4.303092  -1.591213   3.230632  -0.552405   0.000000   0.000000 -33.528192   4.234500   7.208442  11.869125   0.000019  -0.000015  -1.616020   5.570278  -2.303325   0.259856   0.000002   0.000000
 -2.382157   0.905177   3.835101  23.845543  -5.773137   3.237719  34.452441  -0.760704   1.349952   1.206315  -0.294207  -0.481723   2.338868   0.109535  -3.237996  -4.798184  20.158815  -6.613609 -11.033463  22.740295  32.805268  -0.000012  38.905129  -0.000000   1.586745   4.676872  -3.808112  -7.282342 -22.782235   5.605701  -2.618310 -26.841788 -23.655978  -0.000096 -36.958256  -0.000206   7.209469  -8.050756   3.266155 -36.956088  -3.225440  -6.040426   9.342632   0.000015  -0.000020   4.316222  -1.593107   3.234982  -0.554272   0.000000   0.000000 -33.500163   4.239300   7.207569  11.808446   0.000018  -0.000009  -1.587716   5.575691  -2.313915   0.259623   0.000001   0.000000
